<svg width="15" height="16" viewBox="0 0 15 16" fill="none" xmlns="http://www.w3.org/2000/svg">
<path d="M1.11111 7.78889V13.3874C1.11111 14.1756 1.71042 14.8148 2.44931 14.8148H12.5507C12.7264 14.8148 12.9004 14.7779 13.0628 14.7062C13.2252 14.6344 13.3727 14.5293 13.4969 14.3967C13.6212 14.2642 13.7198 14.1068 13.787 13.9337C13.8543 13.7605 13.8889 13.5749 13.8889 13.3874V2.61259C13.8889 2.42514 13.8543 2.23953 13.787 2.06635C13.7198 1.89317 13.6212 1.73581 13.4969 1.60326C13.3727 1.47072 13.2252 1.36557 13.0628 1.29384C12.9004 1.22211 12.7264 1.18519 12.5507 1.18519H7.725C7.57767 1.18516 7.43639 1.12271 7.33222 1.01158C7.22806 0.900455 7.16954 0.749741 7.16954 0.592593C7.16954 0.435444 7.22806 0.284731 7.33222 0.173601C7.43639 0.0624711 7.57767 2.59149e-05 7.725 0H12.5507C13.2003 0 13.8233 0.275255 14.2826 0.765211C14.742 1.25517 15 1.91969 15 2.61259V13.3874C15 14.0803 14.742 14.7448 14.2826 15.2348C13.8233 15.7247 13.2003 16 12.5507 16H2.44931C1.79971 16 1.17672 15.7247 0.717385 15.2348C0.258051 14.7448 7.4698e-09 14.0803 7.4698e-09 13.3874V7.78889C-1.19571e-05 7.71106 0.0143491 7.63399 0.0422631 7.56208C0.070177 7.49018 0.111097 7.42484 0.162686 7.3698C0.214276 7.31476 0.275524 7.2711 0.342933 7.24132C0.410342 7.21153 0.482591 7.1962 0.555556 7.1962C0.62852 7.1962 0.70077 7.21153 0.768179 7.24132C0.835588 7.2711 0.896836 7.31476 0.948425 7.3698C1.00001 7.42484 1.04093 7.49018 1.06885 7.56208C1.09676 7.63399 1.11112 7.71106 1.11111 7.78889Z" fill="#F37A20"/>
<path d="M0.526151 1.92479L0.783095 1.93961C2.43258 2.0339 4.00144 2.73066 5.22625 3.9129C6.45107 5.09514 7.25727 6.69088 7.50948 8.4322C7.53438 8.58515 7.61455 8.72157 7.73275 8.81214C7.85096 8.9027 7.99776 8.94017 8.14159 8.91649C8.28542 8.89281 8.4148 8.80988 8.50191 8.68552C8.58901 8.56116 8.62689 8.4053 8.6074 8.25146C8.31637 6.24138 7.38589 4.39928 5.97217 3.03443C4.55845 1.66957 2.74756 0.86504 0.843512 0.755906L0.585873 0.741091C0.438622 0.732643 0.294257 0.786936 0.184535 0.892026C0.0748132 0.997116 0.00872286 1.14439 0.0008032 1.30146C-0.00711646 1.45853 0.0437832 1.61252 0.142305 1.72956C0.240827 1.84659 0.3789 1.91709 0.526151 1.92554V1.92479Z" fill="#F37A20"/>
<path d="M8.02603 8.24479L5.65103 6.86035C5.52194 6.78759 5.37119 6.77196 5.23138 6.81685C5.09157 6.86173 4.97394 6.96352 4.90395 7.1002C4.83395 7.23687 4.81721 7.39744 4.85734 7.54718C4.89747 7.69692 4.99125 7.82379 5.1184 7.90035L7.66284 9.38405C7.86283 9.5006 8.09675 9.53216 8.31764 9.4724C8.53854 9.41263 8.73008 9.26596 8.85381 9.06183L10.4441 6.43961C10.5242 6.30759 10.5519 6.14703 10.521 5.99325C10.4901 5.83947 10.4033 5.70506 10.2795 5.61961C10.1557 5.53415 10.0052 5.50463 9.86104 5.53756C9.71688 5.57048 9.59087 5.66314 9.51076 5.79516L8.02603 8.24479Z" fill="#F37A20"/>
</svg>
